<svg xmlns="http://www.w3.org/2000/svg" width="343" height="83" fill="none"><path fill="#000" d="M68.75 81.25V79.5H67v-1.75h3.5v1.75h5.25V76H70.5v-1.75h5.25v-3.5H70.5v1.75H67v-1.75h1.75V69h8.75v1.75h1.75v3.5H77.5V76h1.75v3.5H77.5v1.75h-8.75Zm12.25 0V72.5h1.75v-1.75h1.75V69h5.25v1.75h1.75v1.75h1.75v8.75h-3.5v-3.5H84.5v3.5H81ZM84.5 76h5.25v-3.5H88v-1.75h-1.75v1.75H84.5V76Zm15.75-3.5H102v1.75h1.75V76h1.75v3.5h1.75v1.75h-3.5V79.5H102V76h-3.5v5.25H95V69h3.5v5.25h1.75V72.5Zm7-3.5v1.75h-1.75v1.75H102v-1.75h1.75V69h3.5ZM109 81.25V69h10.5v1.75h1.75V76h-1.75v1.75h-7v3.5H109Zm3.5-5.25h5.25v-5.25h-5.25V76Zm10.5 5.25V69h3.5v3.5h3.5v8.75h-7Zm8.75 0V69h3.5v12.25h-3.5Zm-5.25-1.75h1.75v-5.25h-1.75v5.25Zm10.5 1.75V69h10.5v1.75h1.75v3.5h-1.75V76h1.75v3.5h-1.75v1.75H137Zm3.5-7h5.25v-3.5h-5.25v3.5Zm0 5.25h5.25V76h-5.25v3.5Zm10.5 1.75V72.5h1.75v-1.75h1.75V69h5.25v1.75h1.75v1.75h1.75v8.75h-3.5v-3.5h-5.25v3.5H151Zm3.5-5.25h5.25v-3.5H158v-1.75h-1.75v1.75h-1.75V76Zm10.5 5.25V69h1.75v5.25h1.75v-3.5h1.75V69h5.25v1.75h1.75v8.75h-1.75v1.75h-5.25V79.5h-1.75V76h-1.75v5.25H165Zm7-1.75h1.75v-8.75H172v8.75Zm17.5 3.5v-1.75H179V69h3.5v10.5h1.75V69H186v10.5h1.75V69h3.5v10.5H193V83h-3.5Zm3.5-1.75V69h3.5v7h1.75v-1.75H200V72.5h1.75V69h3.5v12.25h-3.5V76H200v1.75h-1.75v1.75h-1.75v1.75H193Zm15.75-10.5V69h8.75v1.75h-8.75ZM207 81.25V72.5h3.5v5.25h1.75V76H214v-1.75h1.75V72.5h3.5v8.75h-3.5v-3.5H214v1.75h-1.75v1.75H207Zm33.25 0v-10.5h-3.5V69h10.5v1.75h-3.5v10.5h-3.5Zm8.75 0V69h12.25v1.75h-8.75v3.5h7V76h-7v3.5h8.75v1.75H249Zm15.75 0V69h10.5v3.5h-1.75v-1.75h-5.25v10.5h-3.5ZM24.5 42.875V36.75h-6.125v-6.125H12.25V24.5H6.125v-6.125h6.125V12.25h6.125V6.125H24.5V0h12.25v6.125h-6.125v6.125H24.5v6.125h-6.125V24.5H24.5v6.125h6.125v6.125h6.125v6.125H24.5ZM91.875 0v6.125H85.75V0h6.125Zm-12.25 6.125h6.125v6.125h-6.125V6.125ZM73.5 12.25h6.125v6.125H73.5V12.25Zm-6.125 6.125H73.5V24.5h-6.125v-6.125ZM61.25 24.5h6.125v6.125H61.25V24.5Zm-6.125 6.125h6.125v6.125h-6.125v-6.125ZM49 36.75h6.125v6.125H49V36.75Zm49 6.125V0h12.25v18.375h18.375V0h12.25v42.875h-12.25V24.5H110.25v18.375H98Zm67.375 0V6.125h-12.25V0h36.75v6.125h-12.25v36.75h-12.25Zm30.625 0V0h12.25v6.125h6.125v6.125h6.125V6.125h6.125V0h12.25v42.875h-12.25v-24.5H220.5v12.25h-6.125v-12.25h-6.125v24.5H196Zm55.125 0V0h12.25v36.75h24.5v6.125h-36.75Zm49 0V36.75h6.125v-6.125h6.125V24.5h6.125v-6.125h-6.125V12.25h-6.125V6.125h-6.125V0h12.25v6.125h6.125v6.125h6.125v6.125h6.125V24.5h-6.125v6.125H318.5v6.125h-6.125v6.125h-12.25Z"/></svg>